#!OML:ASF H:\Terrain\Patient Classification 1\Walking\liu\liu.ASF
:FULLY-SPECIFIED
:DEGREES
372
root 9.329240 17.067900 16.087799 6.215480 4.075100 -2.843470
lowerback -57.539101 2.270600 -1.026810
upperback -7.170100 2.371720 27.555799
thorax 24.759501 1.069750 29.180300
lowerneck -198.500992 -62.327000 -125.326996
upperneck 213.520996 -80.472000 124.793999
head 112.667999 -32.333000 54.105701
rclavicle 0.000000 -0.000000
rhumerus -334.757996 181.817001 -840.130981
rradius 443.359985
rwrist -229.545990
rhand -312.717010 -234.976990
rfingers 71.250198
rthumb -45.454998 -534.289001
lclavicle 0.000000 -0.000000
lhumerus -466.613007 -182.274002 979.545959
lradius 284.380005
lwrist 127.883995
lhand -151.660004 -227.834000
lfingers 71.250198
lthumb 110.046997 69.081802
rfemur -133.121994 58.809200 288.612000
rtibia 293.811005
rfoot -190.858002 30.582500
rtoes -154.582993
lfemur -349.207001 55.202698 -181.123993
ltibia 564.926025
lfoot -150.972992 120.243996
ltoes -29.456200
373
root 9.335530 17.071100 16.211201 6.204580 3.722040 -3.124440
lowerback -57.668499 4.241790 1.804140
upperback -6.795610 4.801950 27.883501
thorax 25.113499 2.303610 28.116100
lowerneck -199.860992 -62.463699 -124.559006
upperneck 214.899994 -81.014008 125.240005
head 113.515999 -32.408901 54.092999
rclavicle -0.000000 0.000000
rhumerus -329.454010 183.188995 -839.713013
rradius 443.713013
rwrist -232.520996
rhand -312.907990 -237.894989
rfingers 71.250198
rthumb -45.639099 -537.204041
lclavicle -0.000000 0.000000
lhumerus -468.679016 -177.877991 975.989990
lradius 282.559998
lwrist 121.941994
lhand -146.270004 -223.701004
lfingers 71.250198
lthumb 115.244995 72.930595
rfemur -125.452995 61.665501 291.828003
rtibia 287.510010
rfoot -192.391998 31.582201
rtoes -141.518005
lfemur -357.151001 54.973000 -178.880997
ltibia 551.608032
lfoot -149.279999 118.153999
ltoes -32.404499
374
root 9.340160 17.078699 16.335300 6.158800 3.261220 -3.226030
lowerback -56.080898 6.826910 2.598730
upperback -7.399920 8.242100 28.003500
thorax 23.448101 4.041980 28.022699
lowerneck -200.377991 -62.487999 -124.201004
upperneck 217.985992 -81.011292 123.781998
head 114.680008 -32.516300 53.575901
rclavicle 0.000000 0.000000
rhumerus -327.125000 180.335007 -838.351990
rradius 445.094971
rwrist -231.721985
rhand -311.264984 -240.977005
rfingers 71.250198
rthumb -44.052399 -540.318970
lclavicle 0.000000 0.000000
lhumerus -472.557007 -173.800995 974.515015
lradius 280.550995
lwrist 122.184998
lhand -141.194000 -223.496002
lfingers 71.250198
lthumb 120.139999 72.855301
rfemur -116.534996 64.248398 293.476990
rtibia 279.683990
rfoot -195.123993 31.198900
rtoes -157.440002
lfemur -363.660004 55.432201 -179.444000
ltibia 537.450989
lfoot -146.903000 120.361008
ltoes -56.635498
375
root 9.346940 17.093800 16.462400 6.061770 2.835320 -3.080400
lowerback -56.868000 8.112830 0.361801
upperback -6.488220 10.055300 28.084099
thorax 24.703501 4.911230 29.532101
lowerneck -199.745010 -61.944500 -124.680008
upperneck 219.304993 -80.097702 123.133003
head 114.903000 -32.238098 53.619301
rclavicle -0.000000 -0.000000
rhumerus -323.630981 179.722000 -837.029053
rradius 447.019012
rwrist -229.503006
rhand -312.057007 -243.367996
rfingers 71.250198
rthumb -44.818001 -542.694031
lclavicle -0.000000 -0.000000
lhumerus -474.239014 -165.800003 970.268005
lradius 277.949005
lwrist 115.979004
lhand -137.455994 -224.419998
lfingers 71.250198
lthumb 123.744003 71.718002
rfemur -106.124001 62.729401 292.312988
rtibia 271.216003
rfoot -195.641998 33.204399
rtoes -168.182999
lfemur -368.669006 54.068699 -182.037994
ltibia 522.273010
lfoot -148.841995 118.329002
ltoes -66.391998
376
root 9.356920 17.104200 16.584000 5.974960 2.576230 -3.307910
lowerback -57.303902 8.783660 2.445260
upperback -5.567990 10.767900 28.784901
thorax 25.885899 5.269940 29.162199
lowerneck -198.453995 -61.059998 -125.834000
upperneck 218.977997 -79.274399 125.666000
head 114.587006 -31.715401 54.945999
rclavicle -0.000000 0.000000
rhumerus -318.356995 181.541000 -836.815063
rradius 446.626007
rwrist -228.619003
rhand -313.557007 -243.878006
rfingers 71.250198
rthumb -46.265900 -543.172974
lclavicle -0.000000 0.000000
lhumerus -474.695007 -158.044998 964.749023
lradius 274.885986
lwrist 108.437996
lhand -134.301010 -225.891998
lfingers 71.250198
lthumb 126.786003 70.059402
rfemur -96.257698 60.722298 294.983002
rtibia 262.847992
rfoot -194.988007 36.709198
rtoes -136.306000
lfemur -374.632996 51.946102 -179.260010
ltibia 506.497986
lfoot -151.764008 110.925995
ltoes -60.194202
377
root 9.366740 17.112600 16.701099 6.007220 2.400520 -3.507220
lowerback -57.292801 10.148800 4.977620
upperback -4.837910 12.398900 29.091900
thorax 26.601101 6.100710 28.192200
lowerneck -199.050995 -60.920300 -126.646004
upperneck 218.271011 -78.921295 126.618004
head 114.469994 -31.494301 55.487900
rclavicle 0.000000 0.000000
rhumerus -311.506989 183.040009 -835.682983
rradius 444.898010
rwrist -230.628998
rhand -315.766998 -246.815002
rfingers 71.250198
rthumb -48.400303 -546.062012
lclavicle 0.000000 0.000000
lhumerus -475.112976 -154.787003 963.044983
lradius 272.752014
lwrist 110.584000
lhand -134.248001 -228.167999
lfingers 71.250198
lthumb 126.836998 67.779999
rfemur -86.717697 59.465199 297.264984
rtibia 253.012009
rfoot -189.855988 39.526402
rtoes -147.798996
lfemur -381.537018 50.001900 -177.511993
ltibia 490.638000
lfoot -152.505005 107.518997
ltoes -75.231102
378
root 9.375350 17.122601 16.834000 5.917740 2.227430 -3.476490
lowerback -57.991402 11.386700 4.714010
upperback -3.145650 14.008599 28.942499
thorax 28.664301 6.878940 28.363098
lowerneck -201.544006 -61.891800 -126.184998
upperneck 218.388992 -79.881905 125.570999
head 115.073997 -31.922300 54.819798
rclavicle -0.000000 -0.000000
rhumerus -305.678986 184.218994 -834.422974
rradius 445.505005
rwrist -233.379990
rhand -318.923004 -259.869995
rfingers 71.250198
rthumb -51.447601 -559.045959
lclavicle -0.000000 -0.000000
lhumerus -474.567993 -148.436005 958.963989
lradius 270.656006
lwrist 104.880997
lhand -131.973999 -227.830994
lfingers 71.250198
lthumb 129.028992 67.979897
rfemur -75.023796 56.922497 297.488007
rtibia 243.834000
rfoot -187.781998 39.561401
rtoes -161.252991
lfemur -384.752014 47.963902 -178.778992
ltibia 474.061005
lfoot -150.987000 105.621002
ltoes -100.806999
379
root 9.371390 17.108200 16.968800 5.667760 1.918170 -4.235390
lowerback -56.716900 12.822800 10.348500
upperback -2.737560 15.503799 31.482899
thorax 28.385899 7.682330 27.917900
lowerneck -199.681000 -62.159500 -126.145004
upperneck 218.108994 -80.459297 125.500000
head 114.687996 -32.252602 54.685997
rclavicle -0.000000 -0.000000
rhumerus -303.509003 185.109009 -834.663025
rradius 446.354004
rwrist -233.349991
rhand -319.295990 -261.966980
rfingers 71.250198
rthumb -51.807800 -561.133972
lclavicle -0.000000 -0.000000
lhumerus -476.447998 -137.300995 952.333008
lradius 268.395020
lwrist 92.267197
lhand -127.197998 -225.018005
lfingers 71.250198
lthumb 133.632996 70.496994
rfemur -63.066402 60.398003 307.847015
rtibia 235.881012
rfoot -190.149994 33.843998
rtoes -188.426987
lfemur -387.135010 48.003101 -170.135986
ltibia 457.901001
lfoot -148.744003 102.668999
ltoes -121.127998
380
root 9.393360 17.094101 17.078699 5.935350 1.779150 -4.187030
lowerback -57.565598 13.696001 11.121599
upperback -5.008370 16.670700 31.340200
thorax 26.496698 8.290370 27.403700
lowerneck -195.371002 -61.680103 -127.042999
upperneck 218.490005 -79.843002 124.789001
head 113.899002 -32.279999 54.717102
rclavicle -0.000000 -0.000000
rhumerus -302.018005 184.127991 -834.057007
rradius 445.332001
rwrist -231.541000
rhand -316.153992 -244.356003
rfingers 71.250198
rthumb -48.774200 -543.593994
lclavicle -0.000000 -0.000000
lhumerus -482.102020 -133.264999 952.988953
lradius 267.002991
lwrist 93.353394
lhand -127.286995 -220.205002
lfingers 71.250198
lthumb 133.546997 75.314896
rfemur -58.292297 57.046200 306.212006
rtibia 227.628998
rfoot -187.276001 40.791504
rtoes -142.722992
lfemur -394.222992 45.083000 -172.097000
ltibia 440.619995
lfoot -145.692993 102.342995
ltoes -147.544006
381
root 9.400830 17.084900 17.204700 6.133090 1.303060 -4.180210
lowerback -59.860802 16.272900 10.973001
upperback -5.611760 20.072701 31.034500
thorax 27.032299 9.986050 27.504599
lowerneck -194.593994 -61.887100 -128.988998
upperneck 220.251007 -80.235001 126.427002
head 114.644005 -32.456299 55.696800
rclavicle -0.000000 0.000000
rhumerus -299.195984 179.011002 -832.501953
rradius 444.912994
rwrist -228.388992
rhand -318.947998 -247.446991
rfingers 71.250198
rthumb -51.471100 -546.622009
lclavicle -0.000000 0.000000
lhumerus -487.230988 -136.475998 957.960938
lradius 265.631989
lwrist 104.543999
lhand -129.580002 -215.762009
lfingers 71.250198
lthumb 131.337006 79.901901
rfemur -51.256401 60.393799 305.790985
rtibia 218.131012
rfoot -183.917007 41.538601
rtoes -170.056000
lfemur -400.359985 45.185398 -172.469009
ltibia 424.138000
lfoot -145.488007 101.121994
ltoes -148.940002
382
root 9.409200 17.089899 17.347099 6.263360 0.837271 -4.337960
lowerback -62.774902 18.679600 12.574400
upperback -5.358910 23.081200 30.598000
thorax 28.888800 11.495500 26.522999
lowerneck -195.709000 -61.907902 -128.690002
upperneck 221.622009 -80.923203 128.447998
head 115.579002 -32.463802 56.364498
rclavicle 0.000000 0.000000
rhumerus -295.247986 174.424988 -832.222961
rradius 443.661011
rwrist -224.654999
rhand -323.328003 -266.303009
rfingers 71.250198
rthumb -55.700104 -565.371033
lclavicle 0.000000 0.000000
lhumerus -490.852997 -135.798996 957.752991
lradius 264.894989
lwrist 107.960999
lhand -132.011993 -224.356003
lfingers 71.250198
lthumb 128.992004 71.457199
rfemur -42.625500 60.903099 307.289001
rtibia 210.422989
rfoot -185.112991 40.942703
rtoes -193.160004
lfemur -404.031006 44.574799 -170.427002
ltibia 406.502014
lfoot -148.207993 99.575798
ltoes -142.255997
